<!-- <svg width="100%" hieght="100%" xmlns="http://www.w3.org/2000/svg">
<path d="M37.7153 84.5859H13.6684V126H0.098114V23.625H33.9887C45.52 23.625 54.3794 26.25 60.5669 31.5C66.8012 36.75 69.9184 44.3906 69.9184 54.4219C69.9184 60.7969 68.1841 66.3516 64.7153 71.0859C61.2934 75.8203 56.5122 79.3594 50.3716 81.7031L74.4184 125.156V126H59.9341L37.7153 84.5859ZM13.6684 73.5469H34.4106C41.1137 73.5469 46.4341 71.8125 50.3716 68.3438C54.3559 64.875 56.3481 60.2344 56.3481 54.4219C56.3481 48.0938 54.4497 43.2422 50.6528 39.8672C46.9028 36.4922 41.4653 34.7812 34.3403 34.7344H13.6684V73.5469ZM197.893 78.1172C197.893 88.1484 196.205 96.9141 192.83 104.414C189.455 111.867 184.674 117.562 178.487 121.5C172.299 125.438 165.08 127.406 156.83 127.406C148.768 127.406 141.619 125.438 135.385 121.5C129.151 117.516 124.299 111.867 120.83 104.555C117.408 97.1953 115.651 88.6875 115.557 79.0312V71.6484C115.557 61.8047 117.268 53.1094 120.69 45.5625C124.112 38.0156 128.94 32.25 135.174 28.2656C141.455 24.2344 148.627 22.2188 156.69 22.2188C164.893 22.2188 172.112 24.2109 178.346 28.1953C184.627 32.1328 189.455 37.875 192.83 45.4219C196.205 52.9219 197.893 61.6641 197.893 71.6484V78.1172ZM184.463 71.5078C184.463 59.3672 182.026 50.0625 177.151 43.5938C172.276 37.0781 165.455 33.8203 156.69 33.8203C148.158 33.8203 141.432 37.0781 136.51 43.5938C131.635 50.0625 129.127 59.0625 128.987 70.5938V78.1172C128.987 89.8828 131.447 99.1406 136.369 105.891C141.338 112.594 148.158 115.945 156.83 115.945C165.549 115.945 172.299 112.781 177.08 106.453C181.862 100.078 184.322 90.9609 184.463 79.1016V71.5078ZM134.26 7.66406C134.26 5.55469 134.893 3.79688 136.158 2.39062C137.471 0.9375 139.393 0.210938 141.924 0.210938C144.455 0.210938 146.377 0.9375 147.69 2.39062C149.002 3.79688 149.658 5.55469 149.658 7.66406C149.658 9.77344 149.002 11.5312 147.69 12.9375C146.377 14.3438 144.455 15.0469 141.924 15.0469C139.393 15.0469 137.471 14.3438 136.158 12.9375C134.893 11.5312 134.26 9.77344 134.26 7.66406ZM164.494 7.80469C164.494 5.69531 165.127 3.91406 166.393 2.46094C167.705 1.00781 169.627 0.28125 172.158 0.28125C174.69 0.28125 176.612 1.00781 177.924 2.46094C179.237 3.91406 179.893 5.69531 179.893 7.80469C179.893 9.91406 179.237 11.6719 177.924 13.0781C176.612 14.4844 174.69 15.1875 172.158 15.1875C169.627 15.1875 167.705 14.4844 166.393 13.0781C165.127 11.6719 164.494 9.91406 164.494 7.80469ZM278.547 80.3672C266.969 77.0391 258.531 72.9609 253.234 68.1328C247.984 63.2578 245.359 57.2578 245.359 50.1328C245.359 42.0703 248.57 35.4141 254.992 30.1641C261.461 24.8672 269.852 22.2188 280.164 22.2188C287.195 22.2188 293.453 23.5781 298.938 26.2969C304.469 29.0156 308.734 32.7656 311.734 37.5469C314.781 42.3281 316.305 47.5547 316.305 53.2266H302.734C302.734 47.0391 300.766 42.1875 296.828 38.6719C292.891 35.1094 287.336 33.3281 280.164 33.3281C273.508 33.3281 268.305 34.8047 264.555 37.7578C260.852 40.6641 259 44.7188 259 49.9219C259 54.0938 260.758 57.6328 264.273 60.5391C267.836 63.3984 273.859 66.0234 282.344 68.4141C290.875 70.8047 297.531 73.4531 302.312 76.3594C307.141 79.2188 310.703 82.5703 313 86.4141C315.344 90.2578 316.516 94.7812 316.516 99.9844C316.516 108.281 313.281 114.938 306.812 119.953C300.344 124.922 291.695 127.406 280.867 127.406C273.836 127.406 267.273 126.07 261.18 123.398C255.086 120.68 250.375 116.977 247.047 112.289C243.766 107.602 242.125 102.281 242.125 96.3281H255.695C255.695 102.516 257.969 107.414 262.516 111.023C267.109 114.586 273.227 116.367 280.867 116.367C287.992 116.367 293.453 114.914 297.25 112.008C301.047 109.102 302.945 105.141 302.945 100.125C302.945 95.1094 301.188 91.2422 297.672 88.5234C294.156 85.7578 287.781 83.0391 278.547 80.3672ZM434.857 34.7344H401.951V126H388.521V34.7344H355.685V23.625H434.857V34.7344ZM531.191 99.2812H488.3L478.667 126H464.746L503.839 23.625H515.652L554.816 126H540.964L531.191 99.2812ZM492.378 88.1719H527.183L509.746 40.2891L492.378 88.1719Z"/>
</svg> -->

<svg>
    <text x="0" y ="15"> I Love SVG</text>
</svg>